<?xml version="1.0" standalone="no"?>
<!DOCTYPE svg PUBLIC "-//W3C//DTD SVG 20010904//EN"
 "http://www.w3.org/TR/2001/REC-SVG-20010904/DTD/svg10.dtd">
<svg version="1.0" xmlns="http://www.w3.org/2000/svg"
 width="237.000000pt" height="212.000000pt" viewBox="0 0 237.000000 212.000000"
 preserveAspectRatio="xMidYMid meet">

<g transform="translate(0.000000,212.000000) scale(0.100000,-0.100000)"
fill="#2c52b9" stroke="#2c52b9">
<path d="M777 2110 c-126 -22 -254 -118 -311 -235 -81 -167 -49 -360 83 -494
245 -250 664 -115 724 233 27 159 -49 338 -179 425 -93 61 -214 88 -317 71z"/>

<path d="M765 1219 c-79 -12 -116 -24 -206 -70 -250 -129 -447 -427 -523 -796
-21 -97 -39 -294 -28 -305 4 -4 37 29 72 74 36 46 134 153 220 238 l155 155 3
-237 2 -238 85 0 85 0 0 140 0 140 35 0 c45 0 78 -34 170 -173 l70 -106 98 -1
97 0 -27 42 c-91 145 -115 178 -158 215 l-47 42 29 7 c42 10 96 42 116 69 38
52 38 162 0 213 -45 61 -100 81 -222 82 l-64 0 24 18 c76 58 345 196 491 253
49 19 88 37 88 40 0 4 -19 22 -42 41 -112 89 -224 139 -352 157 -86 12 -86 12
-171 0z m79 -640 c21 -16 26 -29 26 -64 0 -35 -5 -48 -26 -64 -23 -18 -41 -21
-120 -21 l-94 0 0 85 0 85 94 0 c79 0 97 -3 120 -21z"/>
</g>
<g transform="translate(0.000000,212.000000) scale(0.100000,-0.100000)"
fill="#566bc3" stroke="#566bc3">
<path d="M1546 1744 c-194 -60 -305 -281 -235 -469 11 -30 25 -53 30 -50 5 4
6 0 3 -8 -9 -25 82 -114 154 -149 60 -30 75 -33 152 -33 70 0 95 5 141 27 62
28 142 95 133 109 -3 5 0 8 7 7 6 -2 26 24 43 57 29 56 31 67 30 160 0 115
-18 166 -80 235 -102 113 -243 155 -378 114z"/>
<path d="M1535 996 c-97 -23 -169 -61 -273 -144 l-23 -18 98 -39 c54 -21 128
-53 166 -72 l67 -33 0 -125 0 -126 -127 3 -128 3 -2 100 c0 55 -2 110 -2 123
-1 21 -5 22 -81 22 l-80 0 0 -325 0 -325 83 0 82 0 -3 140 -4 140 131 0 131 0
0 -140 0 -140 80 0 80 0 0 275 0 276 23 -12 c92 -49 311 -239 452 -391 49 -53
93 -94 97 -92 4 3 6 -1 3 -8 -3 -7 9 -28 25 -47 17 -18 30 -30 31 -25 4 48 -6
158 -22 242 -54 280 -197 523 -383 651 -114 79 -295 116 -421 87z"/>
</g>
</svg>
